name analog
datacolumns 19
datarows 27
range 0.0 0.013000000000000001
endheader
time	ground_force_vx	ground_force_vy	ground_force_vz	ground_force_px	ground_force_py	ground_force_pz	l_ground_force_vx	l_ground_force_vy	l_ground_force_vz	l_ground_force_px	l_ground_force_py	l_ground_force_pz	ground_torque_x	ground_torque_y	ground_torque_z	l_ground_torque_x	l_ground_torque_y	l_ground_torque_z
0.0	-0.0	-0.0	-0.0	-2.079142808914185	56.45412063598633	-319.3899841308594	1.4775692224502563	-58.82083511352539	-296.0694274902344	-0.0	-0.0	-0.0	-0.0	-0.0	-0.0	54538.73046875	-15006.037109375	2527.01416015625
0.0005	-0.0	-0.0	-0.0	-1.9626312255859373	56.30563354492188	-318.8065490722656	1.4466748237609863	-58.35006332397461	-296.67144775390625	-0.0	-0.0	-0.0	-0.0	-0.0	-0.0	54665.55078125	-15085.7734375	2428.357666015625
0.001	-0.0	-0.0	-0.0	-2.1699960231781006	56.74477005004883	-319.9621887207031	1.477203130722046	-58.79541397094727	-296.77886962890625	-0.0	-0.0	-0.0	-0.0	-0.0	-0.0	54733.08984375	-14966.4248046875	2497.890869140625
0.0015	-0.0	-0.0	-0.0	-2.143683195114136	56.364505767822266	-320.448486328125	1.4526350498199463	-58.55507278442383	-297.25897216796875	-0.0	-0.0	-0.0	-0.0	-0.0	-0.0	54525.078125	-14971.85546875	2437.8935546875
0.002	-0.0	-0.0	-0.0	-2.316537857055664	56.48580932617188	-320.7779846191406	1.0645294189453125	-58.49505615234375	-296.8919677734375	-0.0	-0.0	-0.0	-0.0	-0.0	-0.0	54674.9921875	-14990.50390625	2468.071533203125
0.0025	-0.0	-0.0	-0.0	-2.380012273788452	56.80471420288086	-320.1827392578125	1.2678180932998655	-58.49747467041016	-295.4950256347656	-0.0	-0.0	-0.0	-0.0	-0.0	-0.0	54695.4453125	-14919.6240234375	2429.930419921875
0.003	-0.0	-0.0	-0.0	-2.469306707382202	56.62292098999024	-320.78692626953125	0.9667354822158812	-58.26689529418945	-296.67840576171875	-0.0	-0.0	-0.0	-0.0	-0.0	-0.0	54530.1875	-14917.0791015625	2289.119873046875
0.0035	-0.0	-0.0	-0.0	-2.2909717559814453	56.81195068359375	-319.38751220703125	1.0393391847610474	-58.05242538452149	-295.9814453125	-0.0	-0.0	-0.0	-0.0	-0.0	-0.0	54626.2265625	-14896.6103515625	2418.445068359375
0.004	-0.0	-0.0	-0.0	-2.120553731918335	56.35485458374024	-321.2655944824219	0.915494441986084	-57.9637565612793	-296.5414733886719	-0.0	-0.0	-0.0	-0.0	-0.0	-0.0	54360.16796875	-14861.546875	2310.403076171875
0.0045000000000000005	-0.0	-0.0	-0.0	-1.8692065477371216	56.662841796875	-321.8591003417969	1.0079454183578491	-58.13620376586914	-296.3334655761719	-0.0	-0.0	-0.0	-0.0	-0.0	-0.0	54285.40625	-14737.50390625	2348.33056640625
0.005	-0.0	-0.0	-0.0	-2.112828731536865	57.14166259765625	-321.5992431640625	0.5886614322662354	-58.2320671081543	-296.1915588378906	-0.0	-0.0	-0.0	-0.0	-0.0	-0.0	54350.84765625	-14665.2626953125	2338.51611328125
0.0055	-0.0	-0.0	-0.0	-2.2631940841674805	56.92621612548828	-321.5241394042969	0.8633590340614319	-58.02735137939453	-295.67987060546875	-0.0	-0.0	-0.0	-0.0	-0.0	-0.0	54276.33203125	-14867.1552734375	2249.743408203125
0.006	-0.0	-0.0	-0.0	-2.2914364337921143	56.83718490600586	-320.46539306640625	0.737699031829834	-57.93437576293945	-294.9963684082031	-0.0	-0.0	-0.0	-0.0	-0.0	-0.0	54288.23046875	-14678.3935546875	2312.0966796875
0.006500000000000001	-0.0	-0.0	-0.0	-2.4086837768554688	57.22707748413086	-320.334228515625	0.7376130223274231	-57.901405334472656	-294.6839599609375	-0.0	-0.0	-0.0	-0.0	-0.0	-0.0	54136.90625	-14816.3115234375	2290.2744140625
0.007	-0.0	-0.0	-0.0	-1.86780858039856	56.53651809692383	-322.10009765625	0.6157945394515991	-58.082794189453125	-295.0331420898437	-0.0	-0.0	-0.0	-0.0	-0.0	-0.0	54118.87890625	-14724.9287109375	2197.71240234375
0.0075	-0.0	-0.0	-0.0	-2.0854926109313965	56.85504150390625	-320.71063232421875	0.9034250378608704	-57.97749328613281	-294.6839599609375	-0.0	-0.0	-0.0	-0.0	-0.0	-0.0	54021.890625	-14941.80078125	2299.711181640625
0.008	-0.0	-0.0	-0.0	-2.005730390548706	56.64387512207031	-321.17449951171875	0.8317717909812927	-57.64083099365234	-294.2259216308594	-0.0	-0.0	-0.0	-0.0	-0.0	-0.0	54097.72265625	-14869.564453125	2381.394287109375
0.0085	-0.0	-0.0	-0.0	-1.6609753370285034	57.01588821411133	-320.334228515625	1.165230631828308	-57.74090576171875	-294.443359375	-0.0	-0.0	-0.0	-0.0	-0.0	-0.0	54021.3359375	-14712.77734375	2210.965576171875
0.009000000000000001	-0.0	-0.0	-0.0	-1.8325350284576416	57.2016716003418	-322.42681884765625	0.5872368812561035	-57.531009674072266	-292.8546447753906	-0.0	-0.0	-0.0	-0.0	-0.0	-0.0	54232.015625	-14731.1611328125	2301.69091796875
0.0095	-0.0	-0.0	-0.0	-1.584966063499451	56.837799072265625	-321.5023193359375	0.9001136422157288	-57.40262222290039	-294.119140625	-0.0	-0.0	-0.0	-0.0	-0.0	-0.0	53866.03125	-14709.439453125	2302.029541015625
0.01	-0.0	-0.0	-0.0	-1.6949996948242188	57.2144775390625	-321.39373779296875	1.0372285842895508	-57.89144515991211	-293.63653564453125	-0.0	-0.0	-0.0	-0.0	-0.0	-0.0	53684.609375	-14921.23046875	2290.69921875
0.0105	-0.0	-0.0	-0.0	-1.6330244541168213	57.29863739013672	-322.1298217773437	0.6481912136077881	-57.45625686645508	-292.96600341796875	-0.0	-0.0	-0.0	-0.0	-0.0	-0.0	53908.8203125	-14862.4853515625	2409.217529296875
0.011	-0.0	-0.0	-0.0	-1.586394429206848	57.24884414672852	-321.8544311523437	1.3108434677124023	-57.382083892822266	-293.07379150390625	-0.0	-0.0	-0.0	-0.0	-0.0	-0.0	54001.828125	-14727.3720703125	2370.998779296875
0.0115	-0.0	-0.0	-0.0	-1.5626956224441528	57.29181289672852	-322.5286865234375	0.5863585472106934	-57.20552444458008	-293.1042785644531	-0.0	-0.0	-0.0	-0.0	-0.0	-0.0	53874.80078125	-14866.0908203125	2340.92138671875
0.012	-0.0	-0.0	-0.0	-1.8381619453430176	57.25695037841797	-323.8988037109375	0.9410234689712524	-57.37445831298828	-293.287353515625	-0.0	-0.0	-0.0	-0.0	-0.0	-0.0	53792.36328125	-14823.732421875	2430.182373046875
0.0125	-0.0	-0.0	-0.0	-1.99808406829834	56.82978057861328	-321.4277038574219	1.0564028024673462	-57.29403305053711	-293.002197265625	-0.0	-0.0	-0.0	-0.0	-0.0	-0.0	53813.60546875	-14916.1552734375	2323.39306640625
0.013000000000000001	-0.0	-0.0	-0.0	-1.7751106023788452	57.44441604614258	-323.0185546875	0.8955031037330627	-57.3641471862793	-293.0043029785156	-0.0	-0.0	-0.0	-0.0	-0.0	-0.0	53678.01953125	-14925.1103515625	2504.70263671875
